<svg xmlns="http://www.w3.org/2000/svg" width="1200" height="600" viewBox="0 0 1200 600"><rect width="1200" height="600" fill="#FAFAF6"/><defs><marker id="arrow" markerWidth="7" markerHeight="7" refX="6" refY="3.5" orient="auto"><path d="M0 0 L6 3.5 L0 7" fill="none" stroke="#216E75" stroke-width="1.3"/></marker></defs><path d="M600 150 L600 179 L600 179 L600 208" stroke="#216E75" stroke-width="3" fill="none"  marker-end="url(#arrow)"/><path d="M600 338 L600 376 L207.5 376 L207.5 414" stroke="#216E75" stroke-width="3" fill="none"  marker-end="url(#arrow)"/><path d="M600 338 L600 376 L597.5 376 L597.5 414" stroke="#216E75" stroke-width="3" fill="none"  marker-end="url(#arrow)"/><path d="M600 338 L600 376 L987.5 376 L987.5 414" stroke="#216E75" stroke-width="3" fill="none"  marker-end="url(#arrow)"/><rect x="80" y="25" width="1040" height="125" fill="#FFFFFF" stroke="#BCCDC6" stroke-width="1.2"/><rect x="80" y="25" width="1040" height="5" fill="#123D38"/><text x="97" y="57" font-family="Arial" font-size="18" font-weight="bold" fill="#123D38">INTERFACE</text><text x="97" y="100" font-family="Arial" font-size="26" font-weight="bold" fill="#172E2B">Compose and ViewModels</text><text x="97" y="137" font-family="Arial" font-size="22" fill="#576B6D">Bundled Bangla and English read the same local mission.</text><rect x="80" y="208" width="1040" height="130" fill="#FFFFFF" stroke="#BCCDC6" stroke-width="1.2"/><rect x="80" y="208" width="1040" height="5" fill="#123D38"/><text x="97" y="240" font-family="Arial" font-size="18" font-weight="bold" fill="#123D38">DOMAIN</text><text x="97" y="283" font-family="Arial" font-size="26" font-weight="bold" fill="#172E2B">Policies and repositories</text><text x="97" y="320" font-family="Arial" font-size="22" fill="#576B6D">Identity, conflicts, routing, priority and custody.</text><rect x="35" y="414" width="345" height="160" fill="#FFFFFF" stroke="#BCCDC6" stroke-width="1.2"/><rect x="35" y="414" width="345" height="5" fill="#123D38"/><text x="52" y="446" font-family="Arial" font-size="18" font-weight="bold" fill="#123D38">PERSISTENCE</text><text x="52" y="489" font-family="Arial" font-size="26" font-weight="bold" fill="#172E2B">Room and DataStore</text><text x="52" y="526" font-family="Arial" font-size="22" fill="#576B6D">Events, queues and profile</text><rect x="425" y="414" width="345" height="160" fill="#FFFFFF" stroke="#BCCDC6" stroke-width="1.2"/><rect x="425" y="414" width="345" height="5" fill="#216E75"/><text x="442" y="446" font-family="Arial" font-size="18" font-weight="bold" fill="#216E75">LOCAL CAPABILITY</text><text x="442" y="489" font-family="Arial" font-size="26" font-weight="bold" fill="#172E2B">Keystore and ONNX</text><text x="442" y="526" font-family="Arial" font-size="22" fill="#576B6D">Protected keys and inference</text><rect x="815" y="414" width="345" height="160" fill="#FFFFFF" stroke="#BCCDC6" stroke-width="1.2"/><rect x="815" y="414" width="345" height="5" fill="#216E75"/><text x="832" y="446" font-family="Arial" font-size="18" font-weight="bold" fill="#216E75">TRANSPORT</text><text x="832" y="489" font-family="Arial" font-size="26" font-weight="bold" fill="#172E2B">Nearby service</text><text x="832" y="526" font-family="Arial" font-size="22" fill="#576B6D">Active foreground relay</text></svg>