<svg xmlns="http://www.w3.org/2000/svg" width="1200" height="320" viewBox="0 0 1200 320"><rect width="1200" height="320" fill="#FAFAF6"/><text x="40" y="55" font-family="Georgia" font-size="30" fill="#123D38">Digital Delta · outline icon family</text><g transform="translate(55 110) scale(4)"><g fill="none" stroke="#123D38" stroke-width="1.75" stroke-linecap="round" stroke-linejoin="round"><rect x="6" y="2" width="12" height="20" rx="2"/><path d="M10 5h4M11 19h2"/></g></g><text x="55" y="265" font-family="Arial" font-size="22" fill="#172E2B">phone</text><g transform="translate(290 110) scale(4)"><g fill="none" stroke="#123D38" stroke-width="1.75" stroke-linecap="round" stroke-linejoin="round"><circle cx="4" cy="12" r="2"/><circle cx="12" cy="5" r="2"/><circle cx="20" cy="12" r="2"/><circle cx="12" cy="19" r="2"/><path d="m6 10 4-4m4 0 4 4m0 4-4 4m-4 0-4-4"/></g></g><text x="290" y="265" font-family="Arial" font-size="22" fill="#172E2B">relay</text><g transform="translate(525 110) scale(4)"><g fill="none" stroke="#123D38" stroke-width="1.75" stroke-linecap="round" stroke-linejoin="round"><circle cx="5" cy="5" r="2"/><circle cx="19" cy="19" r="2"/><path d="M5 7v7a5 5 0 0 0 5 5h7M10 5h9v8m-4-4 4 4 4-4"/></g></g><text x="525" y="265" font-family="Arial" font-size="22" fill="#172E2B">route</text><g transform="translate(760 110) scale(4)"><g fill="none" stroke="#123D38" stroke-width="1.75" stroke-linecap="round" stroke-linejoin="round"><path d="m12 2 8 3v6c0 5-3 8-8 11-5-3-8-6-8-11V5zM8 11l3 3 5-6"/></g></g><text x="760" y="265" font-family="Arial" font-size="22" fill="#172E2B">shield</text><g transform="translate(995 110) scale(4)"><g fill="none" stroke="#123D38" stroke-width="1.75" stroke-linecap="round" stroke-linejoin="round"><path d="M5 2h14v20l-3-2-4 2-4-2-3 2zM8 7h8M8 11h5M9 16l2 2 4-4"/></g></g><text x="995" y="265" font-family="Arial" font-size="22" fill="#172E2B">receipt</text></svg>